<svg width="620" height="200" viewBox="0 0 620 200" fill="none" xmlns="http://www.w3.org/2000/svg">
  <title>Vai Pro Mundo</title>
  <g transform="translate(20 18)">
    <path d="M18 50c0-27 22-49 49-49s49 22 49 49-22 49-49 49H18" stroke="#8B1822" stroke-width="12" fill="none"/>
    <path d="M67 99c0-27 22-49 49-49s49 22 49 49-22 49-49 49-49-22-49-49Z" stroke="#D95F00" stroke-width="12" fill="none"/>
    <path d="M67 99V50c0-27 22-49 49-49s49 22 49 49v49c0 27-22 49-49 49s-49-22-49-49Z" stroke="#CEDBE3" stroke-width="12" fill="none"/>
    <path d="M18 148c0-27 22-49 49-49h49" stroke="#F29B73" stroke-width="12" fill="none"/>
    <text x="6" y="188" font-family="Arial, Helvetica, sans-serif" font-size="25" letter-spacing="34" fill="#3D4136">ANOS</text>
  </g>
  <line x1="238" y1="45" x2="238" y2="160" stroke="#3D4136" stroke-width="2"/>
  <g fill="#8B1822" font-family="Arial Black, Arial, Helvetica, sans-serif" font-weight="900">
    <text x="290" y="68" font-size="62">vai</text>
    <text x="290" y="124" font-size="62">pro</text>
    <text x="290" y="180" font-size="62">mundo</text>
    <circle cx="568" cy="145" r="28"/>
  </g>
</svg>
